<svg width="162" height="162" viewBox="0 0 162 162" fill="none" xmlns="http://www.w3.org/2000/svg">
<circle cx="81" cy="81" r="81" fill="url(#paint0_linear_0_1)"/>
<g clip-path="url(#clip0_0_1)">
<path d="M68.13 122.06C66.99 122.09 65.99 121.25 65.83 120.1C65.66 118.9 66.47 117.79 67.65 117.56C66.35 110.19 62.8 106.13 59.05 101.84C56.13 98.5 53.1 95.03 50.71 89.92C48.36 84.89 47.07 79.69 47.11 74.29C47.16 68.89 48.53 63.33 51.51 57.58C51.53 57.54 51.55 57.51 51.57 57.47C55.48 50.85 60.95 46.43 67.04 43.95C72.15 41.86 77.7 41.15 83.14 41.65C88.56 42.15 93.87 43.85 98.51 46.59C104.41 50.08 109.26 55.26 111.93 61.8C113.37 65.34 114.35 69.29 114.47 73.62C114.59 77.93 113.85 82.58 111.86 87.5C109.2 94.09 105.68 98.18 102.39 102.01C99.36 105.54 96.54 108.82 94.97 113.85C95.86 114.06 96.56 114.79 96.7 115.75C96.87 116.99 96 118.14 94.76 118.31L93.99 118.42C93.85 119.51 93.76 120.68 93.72 121.93L93.97 121.89C95.21 121.72 96.36 122.59 96.53 123.83C96.7 125.07 95.83 126.22 94.59 126.39L93.81 126.5C93.82 126.65 93.83 126.8 93.84 126.95C93.91 127.83 93.92 128.68 93.87 129.49L94 129.47C95.25 129.32 96.38 130.21 96.54 131.45C96.69 132.7 95.8 133.83 94.56 133.99L92.88 134.2C91.68 137.31 89.54 139.67 87.01 141.14C85.27 142.15 83.34 142.73 81.4 142.85C79.43 142.97 77.44 142.6 75.62 141.72C73.54 140.7 71.68 139.01 70.33 136.58C69.68 136.25 69.2 135.61 69.1 134.83C69.06 134.52 69.09 134.22 69.17 133.94C68.78 132.78 68.48 131.51 68.3 130.11L68.23 130.12C66.99 130.29 65.84 129.42 65.67 128.18C65.5 126.94 66.37 125.79 67.61 125.62L68.15 125.54C68.19 124.32 68.18 123.16 68.13 122.06ZM90.41 60.34C90.99 60.35 91.58 60.46 92.15 60.65C93.35 61.06 94.5 61.85 95.39 62.9C96.28 63.96 96.92 65.29 97.08 66.77C97.15 67.42 97.13 68.09 97 68.78C97.62 69.35 98.14 69.98 98.53 70.66C99.17 71.75 99.5 72.96 99.46 74.19C99.42 75.43 99.02 76.67 98.17 77.81C97.66 78.5 96.99 79.15 96.15 79.74C96.21 81.58 95.66 83.24 94.77 84.52C93.78 85.95 92.36 86.94 90.87 87.25C90.51 88.54 89.64 89.68 88.54 90.47C87.1 91.5 85.22 91.98 83.5 91.51C82.32 91.19 81.24 90.44 80.46 89.16C79.52 90.58 78.28 91.34 76.98 91.61C75.32 91.96 73.6 91.45 72.3 90.44C71.3 89.66 70.54 88.57 70.24 87.33C69.76 87.29 69.27 87.19 68.8 87.03C67.63 86.63 66.5 85.87 65.63 84.85C64.75 83.83 64.1 82.55 63.9 81.12C63.8 80.41 63.81 79.66 63.96 78.9C63.42 78.4 62.96 77.84 62.58 77.23C61.91 76.14 61.53 74.91 61.55 73.64C61.57 72.36 61.97 71.07 62.85 69.87C63.34 69.2 63.99 68.56 64.8 67.97C64.79 67.77 64.79 67.57 64.8 67.38C64.87 65.52 65.55 63.89 66.54 62.68C66.57 62.65 66.59 62.62 66.62 62.59C67.61 61.42 68.9 60.64 70.24 60.41C70.29 60.23 70.34 60.06 70.4 59.88C70.87 58.62 71.82 57.54 72.99 56.86C74.17 56.17 75.59 55.87 76.97 56.16C78.21 56.42 79.4 57.13 80.32 58.43C81.24 57.13 82.43 56.42 83.67 56.16C84.93 55.9 86.22 56.12 87.33 56.68C88.42 57.23 89.36 58.12 89.93 59.18C90.15 59.56 90.31 59.94 90.41 60.34ZM90.79 84.35C91.41 84.09 92.01 83.59 92.47 82.92C93.12 81.97 93.49 80.7 93.31 79.27L93.3 79.23V79.2C93.23 78.66 93.48 78.1 93.98 77.8C94.85 77.29 95.48 76.73 95.92 76.13C96.4 75.47 96.64 74.78 96.66 74.1C96.68 73.41 96.48 72.72 96.1 72.07C95.75 71.47 95.25 70.92 94.64 70.45C94.12 70.11 93.88 69.45 94.09 68.83C94.3 68.21 94.35 67.62 94.29 67.05C94.19 66.17 93.8 65.36 93.25 64.7C92.69 64.04 91.98 63.55 91.26 63.3C90.95 63.2 90.64 63.14 90.35 63.14C90.13 63.8 89.77 64.46 89.23 65.1C88.73 65.69 87.85 65.77 87.26 65.27C86.67 64.77 86.59 63.89 87.09 63.3C87.91 62.33 87.92 61.31 87.49 60.52C87.19 59.96 86.69 59.49 86.1 59.2C85.53 58.91 84.89 58.79 84.28 58.92C83.39 59.1 82.53 59.85 81.97 61.41V85.11C82.08 85.27 82.15 85.45 82.18 85.66C82.5 87.62 83.33 88.56 84.26 88.82C85.12 89.06 86.12 88.77 86.92 88.2C87.7 87.64 88.26 86.83 88.27 85.98C88.28 85.01 87.54 83.9 85.57 82.89C84.88 82.54 84.6 81.69 84.95 81C85.3 80.31 86.15 80.03 86.84 80.38C89.07 81.51 90.29 82.92 90.79 84.35ZM70.37 63.27C69.8 63.46 69.24 63.85 68.77 64.39C68.75 64.42 68.73 64.44 68.71 64.46C68.07 65.24 67.64 66.28 67.59 67.48C67.58 67.8 67.59 68.14 67.64 68.49C67.71 69.02 67.47 69.57 66.99 69.88C66.15 70.4 65.53 70.96 65.1 71.55C64.58 72.25 64.35 72.99 64.34 73.69C64.33 74.41 64.55 75.12 64.95 75.77C65.29 76.32 65.75 76.82 66.32 77.24C66.83 77.59 67.06 78.24 66.86 78.85C66.64 79.51 66.59 80.15 66.67 80.75C66.79 81.61 67.19 82.39 67.74 83.03C68.29 83.67 68.98 84.14 69.69 84.38C69.92 84.46 70.15 84.51 70.37 84.53C70.88 83.04 72.16 81.57 74.49 80.38C75.18 80.03 76.02 80.3 76.38 80.99C76.73 81.68 76.46 82.52 75.77 82.88C73.68 83.94 72.9 85.14 72.9 86.18C72.9 86.97 73.36 87.72 74.03 88.24C74.71 88.77 75.59 89.04 76.41 88.87C77.44 88.66 78.44 87.68 78.97 85.54C79 85.4 79.06 85.27 79.13 85.15V62.64C79.1 62.59 79.07 62.53 79.04 62.47L79.03 62.45L79.02 62.43L79.01 62.41V62.4V62.39L79 62.37V62.36V62.35C78.99 62.31 78.98 62.27 78.97 62.23C78.44 60.1 77.44 59.13 76.41 58.92C75.74 58.78 75.02 58.94 74.41 59.3C73.79 59.66 73.29 60.22 73.05 60.86C72.74 61.7 72.93 62.74 74 63.73C74.57 64.26 74.6 65.14 74.08 65.71C73.55 66.28 72.67 66.31 72.1 65.79C71.23 64.97 70.67 64.12 70.37 63.27ZM70.66 67.9C71.21 67.36 72.1 67.36 72.65 67.92C73.19 68.47 73.19 69.36 72.63 69.91C71.66 70.86 71.15 72.1 71.1 73.35C71.05 74.65 71.47 75.99 72.36 77.09C72.85 77.69 72.75 78.58 72.15 79.06C71.55 79.55 70.66 79.45 70.18 78.85C68.85 77.2 68.22 75.2 68.3 73.24C68.37 71.29 69.15 69.38 70.66 67.9ZM87.43 69.38C86.8 68.92 86.66 68.05 87.12 67.42C87.58 66.79 88.45 66.65 89.08 67.11C89.32 67.29 89.55 67.47 89.76 67.66C91.34 69.09 92.21 70.97 92.37 72.92C92.53 74.85 91.99 76.84 90.77 78.51C90.75 78.54 90.72 78.58 90.69 78.61C90.52 78.84 90.35 79.04 90.19 79.23C89.67 79.81 88.78 79.85 88.2 79.33C87.62 78.81 87.58 77.92 88.1 77.34C88.23 77.19 88.34 77.06 88.44 76.93C88.46 76.9 88.47 76.88 88.49 76.85C89.3 75.73 89.66 74.41 89.56 73.13C89.46 71.87 88.9 70.66 87.88 69.74C87.74 69.62 87.59 69.5 87.43 69.38ZM26.18 78.86C25.01 78.89 24.04 77.98 24 76.81C23.96 75.64 24.88 74.67 26.05 74.63L34.75 74.33C35.92 74.29 36.89 75.21 36.93 76.38C36.97 77.55 36.05 78.52 34.88 78.56L26.18 78.86ZM134.68 70.25C135.84 70.13 136.88 70.98 137 72.14C137.12 73.3 136.27 74.34 135.11 74.46L126.45 75.37C125.29 75.49 124.25 74.64 124.13 73.48C124.01 72.32 124.86 71.28 126.02 71.16L134.68 70.25ZM118.91 34.78C119.56 33.81 120.87 33.55 121.84 34.2C122.81 34.85 123.07 36.16 122.42 37.13L117.58 44.37C116.93 45.34 115.62 45.6 114.65 44.95C113.68 44.3 113.42 42.99 114.07 42.02L118.91 34.78ZM81.63 22.06C81.66 20.89 82.63 19.97 83.79 20C84.96 20.03 85.88 21 85.85 22.16L85.63 30.86C85.6 32.03 84.63 32.95 83.47 32.92C82.3 32.89 81.38 31.92 81.41 30.76L81.63 22.06ZM37.88 35.53C37.02 34.73 36.98 33.39 37.77 32.54C38.57 31.68 39.91 31.64 40.76 32.43L47.13 38.37C47.99 39.17 48.03 40.51 47.24 41.36C46.44 42.22 45.1 42.26 44.25 41.47L37.88 35.53ZM71.88 116.95L90.37 114.33C91.96 107.63 95.42 103.6 99.17 99.25C102.25 95.67 105.53 91.85 107.93 85.91C109.69 81.56 110.34 77.48 110.24 73.72C110.14 69.97 109.28 66.51 108 63.38C105.7 57.75 101.49 53.27 96.36 50.23C92.25 47.8 87.56 46.29 82.77 45.86C78 45.42 73.13 46.05 68.64 47.88C63.38 50.03 58.65 53.85 55.25 59.6C52.61 64.72 51.39 69.62 51.35 74.33C51.31 79.07 52.46 83.66 54.55 88.13C56.68 92.69 59.52 95.93 62.24 99.05C66.47 103.9 70.48 108.49 71.88 116.95ZM89.62 119.02L72.35 121.47C72.4 122.57 72.42 123.72 72.4 124.94L89.45 122.52C89.47 121.29 89.52 120.12 89.62 119.02ZM72.49 129.52C72.61 130.44 72.79 131.28 73.02 132.06L89.57 130.02C89.68 129.16 89.7 128.25 89.62 127.28V127.26L89.61 127.09L72.49 129.52ZM75.37 136.36C76.01 137.03 76.72 137.55 77.47 137.91C78.62 138.47 79.89 138.7 81.14 138.63C82.42 138.55 83.71 138.16 84.88 137.48C85.98 136.84 86.97 135.95 87.76 134.83L75.37 136.36Z" fill="white"/>
</g>
<defs>
<linearGradient id="paint0_linear_0_1" x1="14.3486" y1="35.1771" x2="143.023" y2="143.023" gradientUnits="userSpaceOnUse">
<stop offset="0.00571429" stop-color="#0EA5E9"/>
<stop offset="1" stop-color="#082F49"/>
</linearGradient>
<clipPath id="clip0_0_1">
<rect width="113.01" height="122.88" fill="white" transform="translate(24 20)"/>
</clipPath>
</defs>
</svg>
